<?xml version="1.0" encoding="UTF-8"?>
<svg width="77px" height="77px" viewBox="0 0 77 77" version="1.1" xmlns="http://www.w3.org/2000/svg" xmlns:xlink="http://www.w3.org/1999/xlink">
    <!-- Generator: Sketch 55.1 (78136) - https://sketchapp.com -->
    <title>PIRATENsignet</title>
    <desc>Created with Sketch.</desc>
    <g id="Page-1" stroke="none" stroke-width="1" fill="none" fill-rule="evenodd">
        <g id="Startseite" transform="translate(-250.000000, -2185.000000)" fill-rule="nonzero">
            <g id="Footer" transform="translate(0.000000, 2145.000000)">
                <g id="PIRATENsignet" transform="translate(250.000000, 40.000000)">
                    <path d="M0,38.4998491 C0,17.2369365 17.2370041,0 38.5006036,0 C59.7629959,0 77,17.2369365 77,38.4998491 C77,59.7636672 59.7629959,77 38.5006036,77 C17.2370041,77 0,59.7636672 0,38.4998491 Z" id="Path" fill="#FFFFFF"></path>
                    <path d="M38.0009071,2 C18.1175255,2 2,18.1174578 2,38.0001512 C2,57.8822398 18.1175255,73.9990929 38.0009071,74 C57.8824745,74 74,57.8822398 74,38.0001512 C74,18.1174578 57.8824745,2 38.0009071,2 Z M38.0009071,68.8568189 C20.9596069,68.8568189 7.1435051,55.0416822 7.1435051,38.0004536 C7.1435051,20.9580154 20.9596069,7.14318112 38.0009071,7.14318112 C55.0437193,7.14318112 68.8577044,20.9583178 68.8577044,38.0004536 C68.8577044,55.0419846 55.0437193,68.8568189 38.0009071,68.8568189 Z" id="Shape" fill="#000000"></path>
                    <path d="M38.2051583,16.847832 C33.9398237,16.847832 30.6770582,17.2692382 28.2333519,17.8161566 L28.2333519,13 L25.1469117,13 L25.1469117,18.6986841 C22.9058747,19.506935 22,20.2739548 22,20.2739548 C22,20.2739548 23.2908565,20.1645105 25.1469117,20.31367 L25.1469117,49.9470094 C24.4230502,51.295509 23.9590364,52.9010967 23.9590364,54.8404743 C23.9590364,60.1902099 26.5120104,65 26.5120104,65 C26.5120104,65 25.7399513,61.992858 25.7540214,59.8906781 C25.7995247,53.0848176 28.5488813,49.4704264 40.4018895,47.5055824 C45.4799967,46.664286 61.1193576,45.5816664 60.9993127,33.7398511 C60.9277648,26.5889833 56.5486719,16.847832 38.2051583,16.847832 Z M31.9131311,43.8390459 C30.8641605,44.4911643 29.5185205,45.2784965 28.2333519,46.3280706 L28.2333519,20.7702439 C32.8435536,21.7904105 38.3243051,24.6805289 38.3240059,32.6575346 C38.3243051,35.890235 37.9087882,40.1118755 31.9131311,43.8390459 Z" id="Shape" fill="#000000"></path>
                </g>
            </g>
        </g>
    </g>
</svg>